<svg xmlns="http://www.w3.org/2000/svg" xmlns:xlink="http://www.w3.org/1999/xlink" width="64" zoomAndPan="magnify" viewBox="0 0 48 48" height="64" preserveAspectRatio="xMidYMid meet" version="1.0"><defs><clipPath id="fbd2de7a71"><path d="M 1.570312 1 L 46 1 L 46 46.761719 L 1.570312 46.761719 Z M 1.570312 1 " clip-rule="nonzero"/></clipPath><clipPath id="4308e9215b"><path d="M 31 0.476562 L 46.386719 0.476562 L 46.386719 16 L 31 16 Z M 31 0.476562 " clip-rule="nonzero"/></clipPath></defs><g clip-path="url(#fbd2de7a71)"><path fill="#ffffff" d="M 3.402344 46.523438 L 44.152344 46.523438 C 45.164062 46.523438 45.984375 45.703125 45.984375 44.691406 L 45.984375 16.414062 C 45.984375 15.40625 45.164062 14.585938 44.152344 14.585938 C 43.144531 14.585938 42.324219 15.40625 42.324219 16.414062 L 42.324219 42.863281 L 5.234375 42.863281 L 5.234375 4.886719 L 30.058594 4.886719 C 31.070312 4.886719 31.890625 4.066406 31.890625 3.054688 C 31.890625 2.042969 31.070312 1.226562 30.058594 1.226562 L 3.402344 1.226562 C 2.390625 1.226562 1.570312 2.042969 1.570312 3.054688 L 1.570312 44.691406 C 1.570312 45.703125 2.390625 46.523438 3.402344 46.523438 Z M 3.402344 46.523438 " fill-opacity="1" fill-rule="nonzero"/></g><g clip-path="url(#4308e9215b)"><path fill="#ffffff" d="M 33.683594 9.609375 L 37.304688 9.609375 L 37.304688 13.230469 C 37.304688 14.238281 38.125 15.058594 39.136719 15.058594 C 40.148438 15.058594 40.964844 14.238281 40.964844 13.230469 L 40.964844 9.609375 L 44.589844 9.609375 C 45.597656 9.609375 46.417969 8.789062 46.417969 7.777344 C 46.417969 6.765625 45.597656 5.945312 44.589844 5.945312 L 40.964844 5.945312 L 40.964844 2.324219 C 40.964844 1.3125 40.148438 0.496094 39.136719 0.496094 C 38.125 0.496094 37.304688 1.3125 37.304688 2.324219 L 37.304688 5.945312 L 33.683594 5.945312 C 32.671875 5.945312 31.851562 6.765625 31.851562 7.777344 C 31.851562 8.789062 32.671875 9.609375 33.683594 9.609375 Z M 33.683594 9.609375 " fill-opacity="1" fill-rule="nonzero"/></g></svg>